<?xml version="1.0" standalone="no"?><!DOCTYPE svg PUBLIC "-//W3C//DTD SVG 1.1//EN" "http://www.w3.org/Graphics/SVG/1.1/DTD/svg11.dtd"><svg t="1649422659695" class="icon" viewBox="0 0 1024 1024" version="1.1" xmlns="http://www.w3.org/2000/svg" p-id="3575" xmlns:xlink="http://www.w3.org/1999/xlink" width="64" height="64"><defs><style type="text/css"></style></defs><path d="M793.184 602.672a20.8 20.8 0 0 0-4.128-3.264 127.68 127.68 0 0 0-68.032-19.648c-32.736 0-65.44 12.48-90.4 37.44L608 639.856V449.92a154.688 154.688 0 0 0 49.152-32.768c62.496-62.496 62.496-163.776 0-226.272s-163.776-62.496-226.272 0-62.496 163.776 0 226.272a154.24 154.24 0 0 0 49.152 32.8v26.272a63.36 63.36 0 0 0-49.216-23.68 63.36 63.36 0 0 0-37.088 12.064l-137.824 79.776A63.6 63.6 0 0 0 224 599.456v105.264c0 114.432 92.736 207.168 207.168 207.168 55.424 0 105.632-21.888 142.784-57.344l0.032 0.288 3.552-3.552 0.16-0.16 215.488-215.52c9.12-9.104 9.12-23.84 0-32.944zM453.472 394.48c-49.92-49.92-49.92-131.104 0-181.024s131.104-49.92 181.024 0 49.92 131.12 0 181.04c-8.032 8.032-17.088 14.304-26.496 19.744v-110.288c0-35.2-28.8-64-64-64s-64 28.8-64 64v110.272c-9.408-5.44-18.464-11.712-26.528-19.728z m98.4 436.896a174.304 174.304 0 0 1-120.704 48.48C334.56 879.872 256 801.312 256 704.704v-105.248c0-11.28 5.984-21.488 16.032-27.344l140.288-81.552a31.68 31.68 0 0 1 18.432-6.08c12.8 0 20.8 7.456 24.448 11.904l28.416 34.816A16 16 0 0 0 512 521.056v-217.12c0-17.616 14.368-32 32-32s32 14.384 32 32v351.344c0 13.6 8.544 25.008 20.544 29.6a14.016 14.016 0 0 0 14.88-3.2l41.824-41.84a95.2 95.2 0 0 1 67.776-28.048c14.432 0 28.544 3.2 41.408 9.344l-210.56 210.24z" p-id="3576"></path></svg>