<?xml version="1.0" standalone="no"?><!DOCTYPE svg PUBLIC "-//W3C//DTD SVG 1.1//EN" "http://www.w3.org/Graphics/SVG/1.1/DTD/svg11.dtd"><svg t="1649422583243" class="icon" viewBox="0 0 1024 1024" version="1.1" xmlns="http://www.w3.org/2000/svg" p-id="2758" xmlns:xlink="http://www.w3.org/1999/xlink" width="64" height="64"><defs><style type="text/css"></style></defs><path d="M711.888 387.936a127.968 127.968 0 0 0-62.016 34.208 127.456 127.456 0 0 0-37.44 90.4l0.032 32.032L397.168 329.28a64.16 64.16 0 0 0-90.496 0 64.16 64.16 0 0 0 0 90.496l99.552 99.552a63.392 63.392 0 0 0-51.552 18.048 63.392 63.392 0 0 0-17.696 34.752l-41.056 153.856a63.808 63.808 0 0 0 16.448 61.536l74.432 74.432c80.928 80.928 212.064 80.928 292.992 0a206.032 206.032 0 0 0 60.416-141.504l0.224 0.192v-5.024-0.224l-0.032-304.768a23.264 23.264 0 0 0-28.512-22.688z m-3.712 331.744a174.192 174.192 0 0 1-51.072 119.616c-68.32 68.32-179.424 68.32-247.712 0l-74.432-74.432a31.52 31.52 0 0 1-8-30.656l41.536-156.864c0.768-4.672 2.912-11.488 8.736-17.344 9.056-9.056 19.968-9.44 25.696-8.864l44.704 4.512a16.032 16.032 0 0 0 12.928-27.232l-131.296-131.296c-12.48-12.48-12.48-32.8 0-45.248 12.48-12.48 32.8-12.48 45.248 0L600.72 578.08a31.632 31.632 0 0 0 35.456 6.4 14.016 14.016 0 0 0 8.256-12.768v-59.136c0-25.6 9.984-49.664 28.064-67.776a96.128 96.128 0 0 1 35.872-22.688l-0.192 297.568zM513.712 240.544h162.752v-32H513.712l57.92-57.92L549.008 128l-96.544 96.544 96.416 96.448 22.624-22.624z" p-id="2759"></path></svg>